<?xml version="1.0" encoding="utf-8"?>
<!-- Generator: Adobe Illustrator 26.0.1, SVG Export Plug-In . SVG Version: 6.00 Build 0)  -->
<svg version="1.1" id="Layer_1" xmlns="http://www.w3.org/2000/svg" xmlns:xlink="http://www.w3.org/1999/xlink" x="0px" y="0px"
	 viewBox="0 0 841.9 595.3" style="enable-background:new 0 0 841.9 595.3;" xml:space="preserve">
<style type="text/css">
	.st0{display:none;}
	.st1{fill:#61DAFB;}
	.st2{fill:#0A353F;}
	.st3{fill:#FFFFFF;}
</style>
<g class="st0">
	<path class="st1" d="M666.3,296.5c0-32.5-40.7-63.3-103.1-82.4c14.4-63.6,8-114.2-20.2-130.4c-6.5-3.8-14.1-5.6-22.4-5.6v22.3
		c4.6,0,8.3,0.9,11.4,2.6c13.6,7.8,19.5,37.5,14.9,75.7c-1.1,9.4-2.9,19.3-5.1,29.4c-19.6-4.8-41-8.5-63.5-10.9
		c-13.5-18.5-27.5-35.3-41.6-50c32.6-30.3,63.2-46.9,84-46.9V78c-27.5,0-63.5,19.6-99.9,53.6c-36.4-33.8-72.4-53.2-99.9-53.2v22.3
		c20.7,0,51.4,16.5,84,46.6c-14,14.7-28,31.4-41.3,49.9c-22.6,2.4-44,6.1-63.6,11c-2.3-10-4-19.7-5.2-29
		c-4.7-38.2,1.1-67.9,14.6-75.8c3-1.8,6.9-2.6,11.5-2.6V78.5c-8.4,0-16,1.8-22.6,5.6c-28.1,16.2-34.4,66.7-19.9,130.1
		c-62.2,19.2-102.7,49.9-102.7,82.3c0,32.5,40.7,63.3,103.1,82.4c-14.4,63.6-8,114.2,20.2,130.4c6.5,3.8,14.1,5.6,22.5,5.6
		c27.5,0,63.5-19.6,99.9-53.6c36.4,33.8,72.4,53.2,99.9,53.2c8.4,0,16-1.8,22.6-5.6c28.1-16.2,34.4-66.7,19.9-130.1
		C625.8,359.7,666.3,328.9,666.3,296.5L666.3,296.5z M536.1,229.8c-3.7,12.9-8.3,26.2-13.5,39.5c-4.1-8-8.4-16-13.1-24
		c-4.6-8-9.5-15.8-14.4-23.4C509.3,224,523,226.6,536.1,229.8L536.1,229.8z M490.3,336.3c-7.8,13.5-15.8,26.3-24.1,38.2
		c-14.9,1.3-30,2-45.2,2c-15.1,0-30.2-0.7-45-1.9c-8.3-11.9-16.4-24.6-24.2-38c-7.6-13.1-14.5-26.4-20.8-39.8
		c6.2-13.4,13.2-26.8,20.7-39.9c7.8-13.5,15.8-26.3,24.1-38.2c14.9-1.3,30-2,45.2-2c15.1,0,30.2,0.7,45,1.9
		c8.3,11.9,16.4,24.6,24.2,38c7.6,13.1,14.5,26.4,20.8,39.8C504.7,309.8,497.8,323.2,490.3,336.3L490.3,336.3z M522.6,323.3
		c5.4,13.4,10,26.8,13.8,39.8c-13.1,3.2-26.9,5.9-41.2,8c4.9-7.7,9.8-15.6,14.4-23.7C514.2,339.4,518.5,331.3,522.6,323.3
		L522.6,323.3z M421.2,430c-9.3-9.6-18.6-20.3-27.8-32c9,0.4,18.2,0.7,27.5,0.7c9.4,0,18.7-0.2,27.8-0.7
		C439.7,409.7,430.4,420.4,421.2,430z M346.8,371.1c-14.2-2.1-27.9-4.7-41-7.9c3.7-12.9,8.3-26.2,13.5-39.5c4.1,8,8.4,16,13.1,24
		S341.9,363.5,346.8,371.1z M420.7,163c9.3,9.6,18.6,20.3,27.8,32c-9-0.4-18.2-0.7-27.5-0.7c-9.4,0-18.7,0.2-27.8,0.7
		C402.2,183.3,411.5,172.6,420.7,163z M346.7,221.9c-4.9,7.7-9.8,15.6-14.4,23.7c-4.6,8-8.9,16-13,24c-5.4-13.4-10-26.8-13.8-39.8
		C318.6,226.7,332.4,224,346.7,221.9L346.7,221.9z M256.2,347.1c-35.4-15.1-58.3-34.9-58.3-50.6s22.9-35.6,58.3-50.6
		c8.6-3.7,18-7,27.7-10.1c5.7,19.6,13.2,40,22.5,60.9c-9.2,20.8-16.6,41.1-22.2,60.6C274.3,354.2,264.9,350.8,256.2,347.1
		L256.2,347.1z M310,490c-13.6-7.8-19.5-37.5-14.9-75.7c1.1-9.4,2.9-19.3,5.1-29.4c19.6,4.8,41,8.5,63.5,10.9
		c13.5,18.5,27.5,35.3,41.6,50c-32.6,30.3-63.2,46.9-84,46.9C316.8,492.6,313,491.7,310,490L310,490z M547.2,413.8
		c4.7,38.2-1.1,67.9-14.6,75.8c-3,1.8-6.9,2.6-11.5,2.6c-20.7,0-51.4-16.5-84-46.6c14-14.7,28-31.4,41.3-49.9
		c22.6-2.4,44-6.1,63.6-11C544.3,394.8,546.1,404.5,547.2,413.8z M585.7,347.1c-8.6,3.7-18,7-27.7,10.1c-5.7-19.6-13.2-40-22.5-60.9
		c9.2-20.8,16.6-41.1,22.2-60.6c9.9,3.1,19.3,6.5,28.1,10.2c35.4,15.1,58.3,34.9,58.3,50.6C644,312.2,621.1,332.1,585.7,347.1
		L585.7,347.1z"/>
	<circle class="st1" cx="420.9" cy="296.5" r="45.7"/>
	<path class="st1" d="M520.5,78.1"/>
</g>
<rect x="335.5" y="139" class="st2" width="205" height="205"/>
<g>
	<path class="st3" d="M367.7,271.4c-5.7-4.3-8.8-10.3-9.3-18.3h22.8c0.2,2.7,1,4.7,2.4,5.9c1.4,1.2,3.2,1.9,5.3,1.9
		c2,0,3.6-0.5,4.9-1.5c1.3-1,1.9-2.3,1.9-4.1c0-2.3-1.1-4-3.2-5.2c-2.1-1.2-5.5-2.6-10.2-4.1c-5-1.7-9.1-3.3-12.2-4.9
		c-3.1-1.6-5.8-3.9-8.1-6.9c-2.3-3-3.4-7-3.4-11.8c0-4.9,1.2-9.2,3.7-12.7c2.5-3.5,5.9-6.2,10.2-8c4.4-1.8,9.3-2.7,14.8-2.7
		c8.9,0,16.1,2.1,21.4,6.3c5.3,4.2,8.2,10,8.6,17.6h-23.2c-0.1-2.3-0.8-4.1-2.1-5.2c-1.3-1.2-3.1-1.7-5.2-1.7
		c-1.6,0-2.9,0.5-3.9,1.4c-1,0.9-1.5,2.3-1.5,4c0,1.5,0.6,2.7,1.7,3.8c1.1,1.1,2.5,2,4.2,2.7c1.7,0.8,4.1,1.7,7.4,2.9
		c4.9,1.7,8.9,3.3,12,5c3.2,1.6,5.9,3.9,8.2,6.9c2.3,2.9,3.4,6.7,3.4,11.2c0,4.6-1.1,8.7-3.4,12.3c-2.3,3.6-5.6,6.5-9.9,8.6
		c-4.3,2.1-9.4,3.2-15.3,3.2C380.7,277.8,373.4,275.7,367.7,271.4z"/>
	<path class="st3" d="M428.2,229.8c2.3-4.7,5.4-8.4,9.4-10.9c4-2.5,8.4-3.8,13.2-3.8c4.2,0,7.8,0.8,10.9,2.5
		c3.1,1.7,5.4,3.9,7.1,6.8v-8.5h21.4V277h-21.4v-8.5c-1.7,2.8-4.1,5.1-7.1,6.8c-3.1,1.7-6.7,2.5-10.8,2.5c-4.9,0-9.3-1.3-13.2-3.8
		c-4-2.5-7.1-6.2-9.4-11c-2.3-4.8-3.4-10.3-3.4-16.6C424.8,240.1,425.9,234.6,428.2,229.8z M465.6,237.1c-2.1-2.3-4.8-3.4-7.9-3.4
		c-3.2,0-5.9,1.1-8,3.3c-2.1,2.2-3.2,5.3-3.2,9.3c0,3.9,1.1,7,3.2,9.3c2.1,2.3,4.8,3.4,8,3.4c3.1,0,5.8-1.1,7.9-3.4
		c2.1-2.3,3.2-5.4,3.2-9.4C468.8,242.5,467.7,239.4,465.6,237.1z"/>
	<path class="st3" d="M503.6,274.8c-2.3-2.1-3.4-4.7-3.4-7.9c0-3.2,1.1-5.8,3.4-8c2.3-2.1,5.3-3.2,9.1-3.2c3.7,0,6.7,1.1,9,3.2
		c2.3,2.1,3.4,4.8,3.4,8c0,3.1-1.1,5.7-3.4,7.8c-2.3,2.1-5.3,3.2-9,3.2C509,277.9,505.9,276.9,503.6,274.8z"/>
</g>
</svg>
